<?xml version="1.0" standalone="no"?>
<!DOCTYPE svg PUBLIC "-//W3C//DTD SVG 20010904//EN"
 "http://www.w3.org/TR/2001/REC-SVG-20010904/DTD/svg10.dtd">
<svg version="1.0" xmlns="http://www.w3.org/2000/svg"
 width="512.000000pt" height="512.000000pt" viewBox="0 0 512.000000 512.000000"
 preserveAspectRatio="xMidYMid meet">
<metadata>
Created by potrace 1.14, written by Peter Selinger 2001-2017
</metadata>
<g transform="translate(0.000000,512.000000) scale(0.100000,-0.100000)"
fill="#000000" stroke="none">
<path d="M570 4921 l0 -199 1990 1 1990 0 0 198 0 199 -1990 0 -1990 0 0 -199z"/>
<path d="M717 4323 c-1 -1 -22 -4 -47 -8 -99 -15 -213 -69 -301 -144 -48 -41
-119 -138 -144 -196 -50 -119 -49 -95 -52 -686 l-4 -557 200 0 201 0 0 121 c0
97 4 130 19 162 22 50 69 91 119 105 21 6 159 10 328 10 l292 0 27 -67 c15
-38 121 -306 235 -598 115 -291 256 -651 315 -800 59 -148 119 -304 135 -345
16 -41 51 -131 78 -200 27 -69 81 -206 120 -305 39 -99 123 -313 187 -475 65
-162 120 -306 124 -320 8 -27 -2 -49 228 535 51 132 150 382 218 555 68 173
251 641 408 1040 156 399 288 734 292 745 5 11 27 67 50 125 l41 105 300 3
c323 2 344 0 396 -50 59 -57 66 -83 67 -239 l1 -107 198 2 197 1 0 520 c1 286
-3 543 -8 570 -41 240 -221 428 -464 486 -63 15 -1641 19 -1652 4 -6 -8 -199
-485 -253 -625 -8 -21 -27 21 -141 305 l-132 329 -788 1 c-434 0 -789 -1 -790
-2z m1575 -1063 c231 -577 268 -662 276 -640 25 65 275 689 286 715 7 17 63
156 125 310 l111 281 653 -1 c699 -1 684 0 741 -53 51 -48 63 -93 64 -239 1
-76 -2 -133 -7 -133 -6 0 -38 7 -73 15 -52 12 -146 14 -508 12 l-445 -2 -98
-250 c-54 -137 -115 -295 -137 -350 -21 -55 -75 -192 -120 -305 -44 -113 -139
-353 -210 -535 -252 -646 -381 -970 -389 -978 -4 -4 -16 14 -25 40 -10 26 -24
62 -31 78 -6 17 -40 102 -75 190 -34 88 -66 169 -71 180 -4 11 -37 94 -73 185
-65 167 -118 302 -253 645 -41 105 -85 217 -98 250 -92 236 -283 724 -290 740
-5 11 -16 40 -25 65 l-16 45 -450 0 c-416 0 -486 -3 -559 -21 l-26 -7 3 149
c3 139 5 151 27 185 28 41 75 77 117 88 15 4 316 7 668 7 l641 0 267 -666z"/>
</g>
</svg>
